<?xml version="1.0" encoding="utf-8"?>
<!-- Generator: Adobe Illustrator 26.4.1, SVG Export Plug-In . SVG Version: 6.00 Build 0)  -->
<svg version="1.0" id="Layer_1" xmlns="http://www.w3.org/2000/svg" xmlns:xlink="http://www.w3.org/1999/xlink" x="0px" y="0px"
	 viewBox="0 0 1400 1000" style="enable-background:new 0 0 1400 1000;" xml:space="preserve">
<style type="text/css">
	.st0{fill:#070809;}
	.st1{fill:#99B8DB;}
</style>
<g>
	<g>
		<path class="st0" d="M281.87,598.01c-4.97-1.13-10.6-2.42-10.6-4.53c0-3.38,5.8-3.75,8.29-3.75c4.91,0,10.12,1.49,15.07,4.3
			c0.78,0.44,1.71,0.54,2.55,0.24c0.84-0.3,1.52-0.94,1.86-1.76l4.28-10.53c0.56-1.39,0.05-2.99-1.22-3.79
			c-5.83-3.68-14.01-5.79-22.45-5.79c-20.93,0-28.35,11.72-28.35,21.76c0,15.47,13.99,18.72,24.2,21.1
			c5.23,1.22,10.63,2.47,10.63,4.67c0,3.08-6.47,3.32-8.46,3.32c-6.29,0-13.16-2.17-17.95-5.65c-0.76-0.54-1.73-0.72-2.62-0.49
			c-0.9,0.24-1.65,0.87-2.03,1.73l-4.71,10.44c-0.59,1.3-0.2,2.85,0.93,3.72c5.95,4.61,16.27,7.58,26.29,7.58
			c21.05,0,28.52-11.68,28.52-21.68C306.11,603.56,292.1,600.36,281.87,598.01z"/>
		<path class="st0" d="M332.36,573.44h-13.87c-1.71,0-3.1,1.39-3.1,3.1v59.91c0,1.71,1.39,3.1,3.1,3.1h13.87
			c1.71,0,3.1-1.39,3.1-3.1v-59.91C335.46,574.82,334.07,573.44,332.36,573.44z"/>
		<path class="st0" d="M385.48,603.4l23.01-24.75c0.84-0.91,1.06-2.22,0.57-3.35c-0.49-1.13-1.61-1.86-2.84-1.86h-15.41
			c-0.85,0-1.66,0.35-2.25,0.97l-21.19,22.35v-20.22c0-1.71-1.39-3.1-3.1-3.1H350.5c-1.71,0-3.1,1.39-3.1,3.1v59.91
			c0,1.71,1.39,3.1,3.1,3.1h13.78c1.71,0,3.1-1.39,3.1-3.1v-13.9l4.75-4.96l16.96,20.82c0.59,0.73,1.47,1.14,2.4,1.14h16.18
			c1.19,0,2.27-0.68,2.79-1.75s0.38-2.34-0.36-3.27L385.48,603.4z"/>
		<path class="st0" d="M454.81,603.4l23.01-24.75c0.84-0.91,1.06-2.22,0.57-3.35c-0.49-1.13-1.61-1.86-2.84-1.86h-15.41
			c-0.85,0-1.66,0.35-2.25,0.97l-21.19,22.35v-20.22c0-1.71-1.39-3.1-3.1-3.1h-13.78c-1.71,0-3.1,1.39-3.1,3.1v59.91
			c0,1.71,1.39,3.1,3.1,3.1h13.78c1.71,0,3.1-1.39,3.1-3.1v-13.9l4.75-4.96l16.96,20.82c0.59,0.73,1.47,1.14,2.4,1.14H477
			c1.19,0,2.27-0.68,2.79-1.75s0.38-2.34-0.36-3.27L454.81,603.4z"/>
		<path class="st0" d="M535.55,622.23h-29.51v-7.67h24.72c1.71,0,3.1-1.39,3.1-3.1v-10.79c0-1.71-1.39-3.1-3.1-3.1h-24.72v-6.81
			h28.4c1.71,0,3.1-1.39,3.1-3.1v-11.13c0-1.71-1.39-3.1-3.1-3.1h-45.28c-1.71,0-3.1,1.39-3.1,3.1v59.91c0,1.71,1.39,3.1,3.1,3.1
			h46.39c1.71,0,3.1-1.39,3.1-3.1v-11.13C538.64,623.61,537.26,622.23,535.55,622.23z"/>
		<path class="st0" d="M596.77,618.33c7.03-4.26,10.85-11.25,10.85-20.05c0-15.08-11.43-24.84-29.12-24.84h-25.94
			c-1.71,0-3.1,1.39-3.1,3.1v59.91c0,1.71,1.39,3.1,3.1,3.1h13.87c1.71,0,3.1-1.39,3.1-3.1v-13.59h8.03l10.63,15.35
			c0.58,0.84,1.53,1.34,2.55,1.34h14.89c1.16,0,2.21-0.64,2.75-1.66c0.53-1.02,0.45-2.26-0.21-3.21L596.77,618.33z M569.54,590.93
			h8.2c8.65,0,9.65,4.19,9.65,7.34c0,1.82,0,7.34-9.65,7.34h-8.2V590.93z"/>
		<path class="st0" d="M666.06,573.44h-52.21c-1.71,0-3.1,1.39-3.1,3.1v11.3c0,1.71,1.39,3.1,3.1,3.1h16.07v45.52
			c0,1.71,1.39,3.1,3.1,3.1h13.87c1.71,0,3.1-1.39,3.1-3.1v-45.52h16.07c1.71,0,3.1-1.39,3.1-3.1v-11.3
			C669.16,574.82,667.78,573.44,666.06,573.44z"/>
		<path class="st0" d="M744.68,603.4l23.01-24.75c0.84-0.91,1.06-2.22,0.57-3.35c-0.49-1.13-1.61-1.86-2.84-1.86h-15.41
			c-0.85,0-1.66,0.35-2.25,0.97l-21.19,22.35v-20.22c0-1.71-1.39-3.1-3.1-3.1H709.7c-1.71,0-3.1,1.39-3.1,3.1v59.91
			c0,1.71,1.39,3.1,3.1,3.1h13.78c1.71,0,3.1-1.39,3.1-3.1v-13.9l4.75-4.96l16.96,20.82c0.59,0.73,1.47,1.14,2.4,1.14h16.18
			c1.19,0,2.27-0.68,2.79-1.75c0.52-1.07,0.38-2.34-0.36-3.27L744.68,603.4z"/>
		<path class="st0" d="M804.88,572.41c-20.46,0-35.88,14.65-35.88,34.09s15.43,34.09,35.88,34.09c20.45,0,35.88-14.65,35.88-34.09
			S825.34,572.41,804.88,572.41z M804.88,622.57c-9.21,0-15.65-6.61-15.65-16.07c0-9.47,6.43-16.08,15.65-16.08
			c9.21,0,15.64,6.61,15.64,16.08C820.53,615.96,814.09,622.57,804.88,622.57z"/>
		<path class="st0" d="M896.98,622.05h-26.95v-45.51c0-1.71-1.39-3.1-3.1-3.1h-13.87c-1.71,0-3.1,1.39-3.1,3.1v59.91
			c0,1.71,1.39,3.1,3.1,3.1h43.91c1.71,0,3.1-1.39,3.1-3.1v-11.3C900.08,623.44,898.69,622.05,896.98,622.05z"/>
		<path class="st0" d="M937.97,573.44h-27.22c-1.71,0-3.1,1.39-3.1,3.1v59.91c0,1.71,1.39,3.1,3.1,3.1h27.22
			c21.62,0,36.14-13.29,36.14-33.06S959.59,573.44,937.97,573.44z M927.72,591.02h9.57c10.38,0,16.59,5.79,16.59,15.48
			c0,9.68-6.2,15.47-16.59,15.47h-9.57V591.02z"/>
		<path class="st0" d="M1000.28,573.44h-13.87c-1.71,0-3.1,1.39-3.1,3.1v59.91c0,1.71,1.39,3.1,3.1,3.1h13.87
			c1.71,0,3.1-1.39,3.1-3.1v-59.91C1003.38,574.82,1001.99,573.44,1000.28,573.44z"/>
		<path class="st0" d="M1073.37,573.44h-13.7c-1.71,0-3.1,1.39-3.1,3.1v27.7l-24.29-29.66c-0.59-0.72-1.47-1.14-2.4-1.14h-11.47
			c-1.71,0-3.1,1.39-3.1,3.1v59.91c0,1.71,1.39,3.1,3.1,3.1h13.7c1.71,0,3.1-1.39,3.1-3.1v-27.72l24.38,29.69
			c0.59,0.71,1.47,1.13,2.39,1.13h11.38c1.71,0,3.1-1.39,3.1-3.1v-59.91C1076.47,574.82,1075.09,573.44,1073.37,573.44z"/>
		<path class="st0" d="M1122.42,590.42c5.3,0,9.5,1.84,13.24,5.79c1.17,1.23,3.11,1.3,4.35,0.15l8.9-8.21
			c1.23-1.13,1.34-3.03,0.25-4.3c-6.44-7.48-15.92-11.43-27.43-11.43c-20.89,0-36.05,14.33-36.05,34.09
			c0,19.75,15.05,34.09,35.8,34.09c9.62,0,19.13-3,26.09-8.24c0.78-0.59,1.23-1.5,1.23-2.48v-24.31c0-1.71-1.39-3.1-3.1-3.1h-12.67
			c-1.71,0-3.1,1.39-3.1,3.1v15.59c-2.32,0.97-4.81,1.42-7.68,1.42c-9.77,0-16.33-6.46-16.33-16.07
			C1105.91,596.88,1112.54,590.42,1122.42,590.42z"/>
	</g>
	<g>
		<path class="st1" d="M247.55,444.5c0-54.25,11.71-84.51,30.55-84.51c24.84,0,18.84,54.82,37.97,54.82
			c19.41,0,42.83-55.39,66.24-55.39c8.85,0,13.7,2.57,13.7,13.99c0,16.84-19.98,44.25-19.98,60.53c0,19.41,53.1,94.5,9.99,94.5
			c-35.12,0-46.54-51.11-69.95-51.11c-22.84,0-10.28,51.11-39.4,51.11C257.83,528.44,247.55,499.04,247.55,444.5z"/>
		<path class="st1" d="M419.05,444.79c0-55.39,9.42-83.94,30.55-83.94c27.12,0,52.54,69.66,71.38,69.66s1.14-69.66,30.55-69.66
			c21.7,0,28.84,37.11,28.84,87.08s-7.71,81.09-35.69,81.09c-25.69,0-43.97-49.39-64.24-49.39c-21.13,0-6.57,49.39-31.69,49.39
			C431.9,529.02,419.05,503.31,419.05,444.79z"/>
		<path class="st1" d="M787.89,445.36c2-65.96,20.56-87.65,38.83-84.51c27.98,4.57,24.84,81.37,33.69,97.36
			c9.99,17.42,33.12,7.42,41.4,21.42c11.14,19.13-14.85,48.82-56.82,48.82C808.44,528.44,786.17,502.46,787.89,445.36z"/>
		<path class="st1" d="M684.81,360.85c-45.4,0-83.94,47.96-83.94,123.05c0,11.42,2,44.54,26.84,44.54
			c27.69,0,27.41-49.68,48.82-49.68c18.84,0,32.26,49.97,62.53,49.97c20.84,0,30.27-21.98,30.27-42.83
			C769.33,407.38,732.21,360.85,684.81,360.85z"/>
		<path class="st1" d="M1091.17,398.03c-17.01-24.83-42.03-38.17-80.49-38.04c-45.68,0.15-96.7,0-90.14,42.83
			c5.14,34.26,4.86,53.39-0.28,86.8c-6.28,37.4,44.74,38.48,90.42,38.48c43.93,0,65.6-18.64,77.12-33.86
			c26.63-35.79,64.64-18.58,64.64-49.73C1152.45,413.47,1123.24,429.7,1091.17,398.03z M996.49,470.63
			c-26.65,0-33.12-10.57-33.12-40.26c0-24.27,6-36.26,33.12-36.26c24.27,0,38.54,13.5,38.54,36.26
			C1035.03,457.66,1019.9,470.63,996.49,470.63z"/>
	</g>
</g>
</svg>
