<?xml version="1.0" encoding="utf-8"?>
<!-- Generator: Adobe Illustrator 27.3.1, SVG Export Plug-In . SVG Version: 6.00 Build 0)  -->
<svg version="1.1" id="Layer_1" xmlns="http://www.w3.org/2000/svg" xmlns:xlink="http://www.w3.org/1999/xlink" x="0px" y="0px"
	 viewBox="0 0 1400 1000" style="enable-background:new 0 0 1400 1000;" xml:space="preserve">
<style type="text/css">
	.st0{fill:#E30A13;}
	.st1{fill:#F28B1A;}
	.st2{fill:#FDEB1D;}
	.st3{fill:#088236;}
	.st4{fill:#3057A4;}
	.st5{fill:#702282;}
</style>
<g>
	<path d="M281.87,598.01c-4.97-1.13-10.6-2.42-10.6-4.53c0-3.38,5.8-3.75,8.29-3.75c4.91,0,10.12,1.49,15.07,4.3
		c0.78,0.44,1.71,0.54,2.55,0.24c0.84-0.3,1.52-0.94,1.86-1.76l4.28-10.53c0.56-1.39,0.05-2.99-1.22-3.79
		c-5.83-3.68-14.01-5.79-22.45-5.79c-20.93,0-28.35,11.72-28.35,21.76c0,15.47,13.99,18.72,24.2,21.1
		c5.23,1.22,10.63,2.47,10.63,4.67c0,3.08-6.47,3.32-8.46,3.32c-6.29,0-13.16-2.17-17.95-5.65c-0.76-0.54-1.73-0.72-2.62-0.49
		c-0.9,0.24-1.65,0.87-2.03,1.73l-4.71,10.44c-0.59,1.3-0.2,2.85,0.93,3.72c5.95,4.61,16.27,7.58,26.29,7.58
		c21.05,0,28.52-11.68,28.52-21.68C306.11,603.56,292.1,600.36,281.87,598.01z"/>
	<path d="M332.36,573.44h-13.87c-1.71,0-3.1,1.39-3.1,3.1v59.91c0,1.71,1.39,3.1,3.1,3.1h13.87c1.71,0,3.1-1.39,3.1-3.1v-59.91
		C335.46,574.82,334.07,573.44,332.36,573.44z"/>
	<path d="M385.48,603.4l23.01-24.75c0.84-0.91,1.06-2.22,0.57-3.35c-0.49-1.13-1.61-1.86-2.84-1.86h-15.41
		c-0.85,0-1.66,0.35-2.25,0.97l-21.19,22.35v-20.22c0-1.71-1.39-3.1-3.1-3.1H350.5c-1.71,0-3.1,1.39-3.1,3.1v59.91
		c0,1.71,1.39,3.1,3.1,3.1h13.78c1.71,0,3.1-1.39,3.1-3.1v-13.9l4.75-4.96l16.96,20.82c0.59,0.73,1.47,1.14,2.4,1.14h16.18
		c1.19,0,2.27-0.68,2.79-1.75s0.38-2.34-0.36-3.27L385.48,603.4z"/>
	<path d="M454.81,603.4l23.01-24.75c0.84-0.91,1.06-2.22,0.57-3.35c-0.49-1.13-1.61-1.86-2.84-1.86h-15.41
		c-0.85,0-1.66,0.35-2.25,0.97l-21.19,22.35v-20.22c0-1.71-1.39-3.1-3.1-3.1h-13.78c-1.71,0-3.1,1.39-3.1,3.1v59.91
		c0,1.71,1.39,3.1,3.1,3.1h13.78c1.71,0,3.1-1.39,3.1-3.1v-13.9l4.75-4.96l16.96,20.82c0.59,0.73,1.47,1.14,2.4,1.14H477
		c1.19,0,2.27-0.68,2.79-1.75s0.38-2.34-0.36-3.27L454.81,603.4z"/>
	<path d="M535.55,622.23h-29.51v-7.67h24.72c1.71,0,3.1-1.39,3.1-3.1v-10.79c0-1.71-1.39-3.1-3.1-3.1h-24.72v-6.81h28.4
		c1.71,0,3.1-1.39,3.1-3.1v-11.13c0-1.71-1.39-3.1-3.1-3.1h-45.28c-1.71,0-3.1,1.39-3.1,3.1v59.91c0,1.71,1.39,3.1,3.1,3.1h46.39
		c1.71,0,3.1-1.39,3.1-3.1v-11.13C538.64,623.61,537.26,622.23,535.55,622.23z"/>
	<path d="M596.77,618.33c7.03-4.26,10.85-11.25,10.85-20.05c0-15.08-11.43-24.84-29.12-24.84h-25.94c-1.71,0-3.1,1.39-3.1,3.1v59.91
		c0,1.71,1.39,3.1,3.1,3.1h13.87c1.71,0,3.1-1.39,3.1-3.1v-13.59h8.03l10.63,15.35c0.58,0.84,1.53,1.34,2.55,1.34h14.89
		c1.16,0,2.21-0.64,2.75-1.66c0.53-1.02,0.45-2.26-0.21-3.21L596.77,618.33z M569.54,590.93h8.2c8.65,0,9.65,4.19,9.65,7.34
		c0,1.82,0,7.34-9.65,7.34h-8.2V590.93z"/>
	<path d="M666.06,573.44h-52.21c-1.71,0-3.1,1.39-3.1,3.1v11.3c0,1.71,1.39,3.1,3.1,3.1h16.07v45.52c0,1.71,1.39,3.1,3.1,3.1h13.87
		c1.71,0,3.1-1.39,3.1-3.1v-45.52h16.07c1.71,0,3.1-1.39,3.1-3.1v-11.3C669.16,574.82,667.78,573.44,666.06,573.44z"/>
	<path d="M744.68,603.4l23.01-24.75c0.84-0.91,1.06-2.22,0.57-3.35c-0.49-1.13-1.61-1.86-2.84-1.86h-15.41
		c-0.85,0-1.66,0.35-2.25,0.97l-21.19,22.35v-20.22c0-1.71-1.39-3.1-3.1-3.1H709.7c-1.71,0-3.1,1.39-3.1,3.1v59.91
		c0,1.71,1.39,3.1,3.1,3.1h13.78c1.71,0,3.1-1.39,3.1-3.1v-13.9l4.75-4.96l16.96,20.82c0.59,0.73,1.47,1.14,2.4,1.14h16.18
		c1.19,0,2.27-0.68,2.79-1.75c0.52-1.07,0.38-2.34-0.36-3.27L744.68,603.4z"/>
	<path d="M804.88,572.41c-20.46,0-35.88,14.65-35.88,34.09s15.43,34.09,35.88,34.09c20.45,0,35.88-14.65,35.88-34.09
		S825.34,572.41,804.88,572.41z M804.88,622.57c-9.21,0-15.65-6.61-15.65-16.07c0-9.47,6.43-16.08,15.65-16.08
		c9.21,0,15.64,6.61,15.64,16.08C820.53,615.96,814.09,622.57,804.88,622.57z"/>
	<path d="M896.98,622.05h-26.95v-45.51c0-1.71-1.39-3.1-3.1-3.1h-13.87c-1.71,0-3.1,1.39-3.1,3.1v59.91c0,1.71,1.39,3.1,3.1,3.1
		h43.91c1.71,0,3.1-1.39,3.1-3.1v-11.3C900.08,623.44,898.69,622.05,896.98,622.05z"/>
	<path d="M937.97,573.44h-27.22c-1.71,0-3.1,1.39-3.1,3.1v59.91c0,1.71,1.39,3.1,3.1,3.1h27.22c21.62,0,36.14-13.29,36.14-33.06
		S959.59,573.44,937.97,573.44z M927.72,591.02h9.57c10.38,0,16.59,5.79,16.59,15.48c0,9.68-6.2,15.47-16.59,15.47h-9.57V591.02z"/>
	<path d="M1000.28,573.44h-13.87c-1.71,0-3.1,1.39-3.1,3.1v59.91c0,1.71,1.39,3.1,3.1,3.1h13.87c1.71,0,3.1-1.39,3.1-3.1v-59.91
		C1003.38,574.82,1001.99,573.44,1000.28,573.44z"/>
	<path d="M1073.37,573.44h-13.7c-1.71,0-3.1,1.39-3.1,3.1v27.7l-24.29-29.66c-0.59-0.72-1.47-1.14-2.4-1.14h-11.47
		c-1.71,0-3.1,1.39-3.1,3.1v59.91c0,1.71,1.39,3.1,3.1,3.1h13.7c1.71,0,3.1-1.39,3.1-3.1v-27.72l24.38,29.69
		c0.59,0.71,1.47,1.13,2.39,1.13h11.38c1.71,0,3.1-1.39,3.1-3.1v-59.91C1076.47,574.82,1075.09,573.44,1073.37,573.44z"/>
	<path d="M1122.42,590.42c5.3,0,9.5,1.84,13.24,5.79c1.17,1.23,3.11,1.3,4.35,0.15l8.9-8.21c1.23-1.13,1.34-3.03,0.25-4.3
		c-6.44-7.48-15.92-11.43-27.43-11.43c-20.89,0-36.05,14.33-36.05,34.09c0,19.75,15.05,34.09,35.8,34.09c9.62,0,19.13-3,26.09-8.24
		c0.78-0.59,1.23-1.5,1.23-2.48v-24.31c0-1.71-1.39-3.1-3.1-3.1h-12.67c-1.71,0-3.1,1.39-3.1,3.1v15.59
		c-2.32,0.97-4.81,1.42-7.68,1.42c-9.77,0-16.33-6.46-16.33-16.07C1105.91,596.88,1112.54,590.42,1122.42,590.42z"/>
</g>
<g>
	<path class="st0" d="M299.19,387.26h-45.2c5.28-17.82,13.58-27.27,24.11-27.27C290.48,359.99,295.2,373.61,299.19,387.26z"/>
	<path class="st0" d="M396.02,373.41c0,4.1-1.18,8.82-2.97,13.85h-45.46c11.23-13.9,22.98-27.84,34.73-27.84
		C391.17,359.42,396.02,361.99,396.02,373.41z"/>
	<path class="st0" d="M482.42,387.26h-57.66c4.89-17.51,13.04-26.41,24.84-26.41C460.96,360.85,472.02,373.06,482.42,387.26z"/>
	<path class="st0" d="M574.54,387.26h-41.32c1.94-14.2,5.99-26.41,18.31-26.41C562.75,360.85,570.08,370.77,574.54,387.26z"/>
	<path class="st0" d="M739.64,387.26H631.3c14.65-17,33.41-26.41,53.51-26.41C705.92,360.85,725,370.08,739.64,387.26z"/>
	<path class="st0" d="M846.73,387.26h-49.95c7.52-21,18.78-28.33,29.93-26.41C836.69,362.48,842.72,373.29,846.73,387.26z"/>
	<path class="st0" d="M1082.6,387.26H921.02c7.12-27.23,50.37-27.14,89.67-27.27C1043.14,359.88,1066.03,369.37,1082.6,387.26z"/>
	<path class="st1" d="M393.05,387.26c-3.22,9.06-8.41,19.14-12.2,28.41h-132c1.07-11.04,2.81-20.54,5.14-28.41h45.2
		c4.02,13.75,7.29,27.55,16.89,27.55c9.67,0,20.34-13.76,31.51-27.55H393.05z"/>
	<path class="st1" d="M482.42,387.26c7.04,9.62,13.78,20.15,20.12,28.41h-82.41c0.92-11.15,2.45-20.63,4.63-28.41H482.42z"/>
	<path class="st1" d="M574.54,387.26c2.17,8.04,3.66,17.64,4.6,28.41h-48.85c1.28-8.26,1.62-18.79,2.93-28.41H574.54z"/>
	<path class="st1" d="M739.64,387.26c6.72,7.85,12.5,17.36,17.12,28.41H613.8c4.75-10.99,10.68-20.52,17.5-28.41H739.64z"/>
	<path class="st1" d="M846.73,387.26c2.51,8.73,4.24,18.69,5.67,28.41h-62.16c1.56-11.4,3.8-20.8,6.54-28.41H846.73z"/>
	<path class="st1" d="M1117.36,415.67h-84.73c-5.01-13.75-17.68-21.56-36.14-21.56c-20.93,0-29.28,7.14-32,21.56h-42.18
		c-0.5-4.07-1.08-8.33-1.76-12.86c-0.92-5.98-0.71-11.13,0.47-15.55h161.58c3.07,3.3,5.92,6.9,8.57,10.77
		C1100.34,407.08,1109.28,412.22,1117.36,415.67z"/>
	<path class="st2" d="M380.85,415.67c-2.78,6.75-4.81,13.08-4.81,18.27c0,2.53,0.9,6,2.38,10.14H247.55
		c0.01-10.37,0.45-19.85,1.3-28.41H380.85z"/>
	<path class="st2" d="M579.14,415.67c0.75,8.76,1.14,18.3,1.21,28.41h-161.3c0.02-10.44,0.37-19.91,1.08-28.41h82.41
		c6.64,8.67,12.83,14.84,18.44,14.84c5.61,0,7.98-6.17,9.31-14.84H579.14z"/>
	<path class="st2" d="M756.76,415.67c3.6,8.56,6.5,18.05,8.6,28.41h-160.5c2.17-10.31,5.19-19.81,8.94-28.41H756.76z"/>
	<path class="st2" d="M852.4,415.67c1.51,10.34,2.68,20.4,4.08,28.41h-68.55c0.36-10.6,1.15-20.05,2.31-28.41H852.4z"/>
	<path class="st2" d="M964.49,415.67c-0.81,4.26-1.12,9.16-1.12,14.7c0,5.13,0.19,9.68,0.65,13.71h-39.77
		c-0.05-8.94-0.69-18.03-1.94-28.41H964.49z"/>
	<path class="st2" d="M1033.51,444.08c1-4.08,1.52-8.65,1.52-13.71c0-5.45-0.82-10.37-2.4-14.7h84.73
		c20.07,8.56,34.9,6.7,35.08,28.41H1033.51z"/>
	<path class="st3" d="M378.42,444.08c2.77,7.78,7.58,17.9,12.2,28.41h-142c-0.71-8.43-1.07-17.77-1.07-27.99v-0.42H378.42z"/>
	<path class="st3" d="M580.35,444.08c0.02,1.27,0.02,2.56,0.02,3.85c0,8.79-0.24,17-0.79,24.56h-159.4
		c-0.74-8.26-1.13-17.48-1.13-27.7v-0.71H580.35z"/>
	<path class="st3" d="M765.36,444.08c1.81,8.85,3.02,18.33,3.59,28.41H601.18c0.54-10.03,1.79-19.52,3.68-28.41H765.36z"/>
	<path class="st3" d="M892.32,472.49H789.14c-1.12-8.11-1.55-17.14-1.25-27.13c0.01-0.43,0.03-0.86,0.04-1.28h68.55
		c1.08,6.21,2.3,11.2,3.93,14.13C867.68,470.89,881.92,469.04,892.32,472.49z"/>
	<path class="st3" d="M1152.45,444.5c0,20.89-17.09,20.03-36.38,27.99H922.6c1.16-10.13,1.72-19.19,1.65-28.41h39.77
		c2.19,19.31,10.43,26.55,32.47,26.55c19.07,0,32.65-8.61,37.02-26.55h118.93C1152.45,444.22,1152.45,444.36,1152.45,444.5z"/>
	<path class="st4" d="M401.17,500.9h-56.08c-9.51-12.08-17.92-23.57-29.01-23.57c-10.83,0-13.71,11.49-16.84,23.57h-46.03
		c-2.12-7.86-3.65-17.35-4.59-28.41h142C394.86,482.13,398.94,492.1,401.17,500.9z"/>
	<path class="st4" d="M579.58,472.49c-0.78,10.89-2.2,20.43-4.47,28.41h-67.44c-9.25-11.11-18.03-21.28-27.23-21.28
		c-9.58,0-11.83,10.17-13.76,21.28h-41.71c-2.15-7.76-3.79-17.19-4.79-28.41H579.58z"/>
	<path class="st4" d="M768.95,472.49c0.25,4.36,0.38,8.83,0.38,13.41c0,5.04-0.55,10.15-1.69,15h-66.26
		c-8.59-11.48-16.14-22.14-24.84-22.14c-9.93,0-15.2,10.68-20.75,22.14h-53.41c-1.28-6.74-1.51-13.12-1.51-17s0.1-7.68,0.31-11.41
		H768.95z"/>
	<path class="st4" d="M901.8,479.62c3.73,6.41,3.3,14.01-0.52,21.28H797.54c-4.01-7.75-6.86-17.2-8.4-28.41h103.18
		C896.2,473.78,899.55,475.81,901.8,479.62z"/>
	<path class="st4" d="M1116.07,472.49c-9.48,3.91-19.49,9.95-28.26,21.74c-1.65,2.18-3.5,4.42-5.6,6.67H920.24
		c-0.66-3.34-0.68-7.08,0.03-11.29c0.94-6.13,1.72-11.78,2.33-17.12H1116.07z"/>
	<path class="st5" d="M253.21,500.9h46.03c-3.46,13.41-7.25,27.54-22.56,27.54C266,528.44,258.07,519,253.21,500.9z"/>
	<path class="st5" d="M401.17,500.9c3.94,15.6,2.05,27.54-15.14,27.54c-18.47,0-30.38-14.13-40.94-27.54H401.17z"/>
	<path class="st5" d="M424.97,500.9h41.71c-2.33,13.38-4.21,28.12-17.94,28.12C438.84,529.02,430.31,520.13,424.97,500.9z"/>
	<path class="st5" d="M507.67,500.9h67.44c-5.1,17.99-14.47,28.12-30.44,28.12C530.63,529.02,518.81,514.28,507.67,500.9z"/>
	<path class="st5" d="M602.38,500.9h53.41c-6.42,13.25-13.23,27.54-28.08,27.54C611.3,528.44,604.86,514,602.38,500.9z"/>
	<path class="st5" d="M701.38,500.9h66.26c-3.54,15.19-12.78,27.83-28.58,27.83C722.78,528.73,711.38,514.27,701.38,500.9z"/>
	<path class="st5" d="M797.54,500.9h103.74c-7.55,14.41-28.39,27.54-56.29,27.54C823.67,528.44,807.21,519.6,797.54,500.9z"/>
	<path class="st5" d="M1082.21,500.9c-12.57,13.5-33.88,27.19-71.52,27.19c-40.54,0-85.3-0.85-90.45-27.19H1082.21z"/>
</g>
</svg>
